# xmcd
#
# Track frame offsets:
#	150
#	9314
#	28829
#	48709
#	70415
#	86471
#	100923
#	120396
#	159396
#	173033
#	199756
#	214671
#
# Disc length: 3119 seconds
#
# Revision: 1
# Processed by: cddbd v1.5.2PL0 Copyright (c) Steve Scherf et al.
# Submitted via: audiograbber 1.83.01
#
DISCID=9a0c2d0c
DTITLE=Ruf Records - Rich Man's War - New Blues and Roots Songs of Peace and Pr
DTITLE=otest
DYEAR=2008
DGENRE=Blues
TTITLE0=Bob Brozman - Follow the Money
TTITLE1=Guitar Shorty - We the People
TTITLE2=Norman and Nancy Blake - Don´t Be Afraid of the Neocons
TTITLE3=Matthew Stoller Band - Handful of People
TTITLE4=David Evans - Bring the Boys Back Home
TTITLE5=Candye Kane - Jesus and Mohammed
TTITLE6=Charlie Wood and The New Memphis Underground - You Don´t Really Wanna Kno
TTITLE6=w
TTITLE7=Pat Boyack Band - Mr. Wesola´s Lucky Numer Dream Book Part II
TTITLE8=Roy Zimmerman - Chickenhawk
TTITLE9=Michael Hill - Fear Itself
TTITLE10=Eddy "The Chief" Clearwater - A Time For Peace
TTITLE11=Doug McLeod - Dubb´s Talkin´ Politician Blues
EXTD=YEAR: 2008
EXTT0=
EXTT1=
EXTT2=
EXTT3=
EXTT4=
EXTT5=
EXTT6=
EXTT7=
EXTT8=
EXTT9=
EXTT10=
EXTT11=
PLAYORDER=
